<svg width="157" height="42" viewBox="0 0 157 42" fill="none" xmlns="http://www.w3.org/2000/svg">
<path d="M55.1273 15.323L56.0361 10.6333H57.4751C58.1206 10.6333 58.6281 10.7937 58.9974 11.1151C59.3668 11.4358 59.5511 11.8841 59.5511 12.46C59.5511 13.2618 59.2906 13.9389 58.769 14.4927C58.2473 15.0465 57.5833 15.323 56.7791 15.323H55.1273ZM55.8831 14.7521H56.7393C57.3584 14.7521 57.8687 14.5369 58.2715 14.1071C58.6736 13.678 58.875 13.1464 58.875 12.5135C58.875 12.0922 58.7469 11.7694 58.49 11.5434C58.2338 11.3175 57.8801 11.2049 57.4289 11.2049H56.5799L55.8831 14.7521ZM60.0158 15.323L60.9311 10.6333H61.5808L60.6656 15.323H60.0158ZM62.0384 13.4101C62.0384 12.6346 62.3174 11.9654 62.8747 11.4009C63.4312 10.8357 64.0902 10.5535 64.851 10.5535C65.5627 10.5535 66.1242 10.7373 66.5355 11.1051L66.1377 11.5698C65.9961 11.4458 65.8082 11.3453 65.5741 11.2676C65.3392 11.1899 65.1029 11.1514 64.8645 11.1514C64.2631 11.1514 63.7557 11.3738 63.3422 11.8193C62.9287 12.264 62.7216 12.7836 62.7216 13.3766C62.7216 13.8106 62.8512 14.1563 63.1095 14.4129C63.3686 14.6702 63.7059 14.7984 64.1215 14.7984C64.6297 14.7984 65.1143 14.5925 65.5741 14.1805L65.7 13.5362H64.9435L65.0503 12.9646H66.4096L65.952 15.323H65.3819L65.4346 15.0244L65.4808 14.8248H65.468C65.362 14.9353 65.1734 15.0593 64.9037 15.1969C64.6339 15.3344 64.3357 15.4028 64.0084 15.4028C63.4468 15.4028 62.9786 15.219 62.6021 14.8512C62.2263 14.4841 62.0384 14.003 62.0384 13.4101ZM66.9668 15.323L67.882 10.6333H68.5318L67.6166 15.323H66.9668ZM69.9317 15.323L70.7344 11.2049H69.1289L69.2349 10.6333H73.1022L72.9962 11.2049H71.3842L70.5885 15.323H69.9317ZM72.0012 15.323L74.5683 10.6333H75.2977L76.0671 15.323H75.4102L75.1981 13.9745H73.4338L72.7108 15.323H72.0012ZM73.7121 13.43H75.1319L74.8999 11.9483L74.8401 11.2776H74.8266C74.7077 11.5613 74.606 11.7843 74.522 11.9483L73.7121 13.43ZM76.7638 15.323L77.679 10.6333H78.3288L77.5267 14.7521H79.629L79.5094 15.323H76.7638ZM80.9691 15.323L83.5354 10.6333H84.2656L85.0349 15.323H84.378L84.166 13.9745H82.4017L81.6786 15.323H80.9691ZM82.68 13.43H84.0998L83.8671 11.9483L83.808 11.2776H83.7945C83.6749 11.5613 83.5731 11.7843 83.4892 11.9483L82.68 13.43ZM85.7181 13.4101C85.7181 12.6346 85.9964 11.9654 86.5536 11.4009C87.1109 10.8357 87.7699 10.5535 88.53 10.5535C89.2424 10.5535 89.8039 10.7373 90.2152 11.1051L89.8167 11.5698C89.6758 11.4458 89.4872 11.3453 89.253 11.2676C89.0189 11.1899 88.7819 11.1514 88.5435 11.1514C87.9421 11.1514 87.4347 11.3738 87.0212 11.8193C86.6077 12.264 86.4013 12.7836 86.4013 13.3766C86.4013 13.8106 86.5302 14.1563 86.7892 14.4129C87.0476 14.6702 87.3849 14.7984 87.8005 14.7984C88.3094 14.7984 88.7933 14.5925 89.253 14.1805L89.379 13.5362H88.6232L88.7292 12.9646H90.0886L89.6309 15.323H89.0609L89.1136 15.0244L89.1605 14.8248H89.147C89.041 14.9353 88.8531 15.0593 88.5834 15.1969C88.3136 15.3344 88.0147 15.4028 87.6881 15.4028C87.1265 15.4028 86.6576 15.219 86.2818 14.8512C85.906 14.4841 85.7181 14.003 85.7181 13.4101ZM90.6458 15.323L91.5617 10.6333H94.2811L94.1615 11.2049H92.099L91.8137 12.6724H93.4918L93.3786 13.244H91.7069L91.4087 14.7521H93.5843L93.4783 15.323H90.6458ZM94.3736 15.323L95.2888 10.6333H95.8994L97.3918 13.6759C97.4267 13.7507 97.4658 13.8462 97.5078 13.961C97.5498 14.0765 97.584 14.1712 97.6103 14.2468L97.6437 14.3594H97.6573C97.6793 14.0807 97.7078 13.8527 97.7434 13.6759L98.3334 10.6333H98.9902L98.075 15.323H97.4708L95.972 12.2804L95.7201 11.5962H95.7066C95.6802 11.8756 95.6518 12.1036 95.6204 12.2804L95.0233 15.323H94.3736ZM99.4614 13.3701C99.4614 12.8698 99.5895 12.4016 99.8457 11.9654C100.103 11.5292 100.444 11.1849 100.87 10.9319C101.298 10.6796 101.752 10.5535 102.233 10.5535C102.556 10.5535 102.87 10.6048 103.176 10.7067C103.48 10.8079 103.73 10.9654 103.925 11.1778L103.534 11.6361C103.202 11.3132 102.773 11.1514 102.247 11.1514C101.663 11.1514 101.166 11.371 100.754 11.8093C100.343 12.2476 100.137 12.7565 100.137 13.3367C100.137 13.7621 100.265 14.1121 100.519 14.3865C100.773 14.6609 101.122 14.7984 101.564 14.7984C102.117 14.7984 102.636 14.5967 103.122 14.1933L103.408 14.7115C103.186 14.9111 102.901 15.0764 102.552 15.2068C102.203 15.3373 101.862 15.4028 101.53 15.4028C100.898 15.4028 100.395 15.2147 100.021 14.8384C99.6478 14.4613 99.4614 13.9724 99.4614 13.3701ZM105.026 15.323L105.417 13.3367L104.389 10.6333H105.092L105.649 12.1742L105.829 12.7658H105.842C105.979 12.5576 106.111 12.3602 106.239 12.1742L107.387 10.6333H108.177L106.067 13.3566L105.683 15.323H105.026Z" fill="white" fill-opacity="0.501961"/>
<path d="M52.2599 31.4549L54.2939 20.9792H58.2872C58.9113 20.9792 59.4429 21.0869 59.882 21.3014C60.3695 21.5359 60.7453 21.883 61.0086 22.342C61.2719 22.801 61.4036 23.3377 61.4036 23.9534C61.4036 24.813 61.1816 25.5963 60.7375 26.3047C60.2941 27.0132 59.7162 27.5328 59.0045 27.8649C58.5071 28.0994 57.9705 28.217 57.3954 28.217H55.4497L54.8206 31.4549H52.2599ZM55.8739 26.0189H57.1172C57.478 26.0189 57.7655 25.9455 57.9804 25.7994C58.5071 25.448 58.7704 24.9106 58.7704 24.1879C58.7704 23.875 58.68 23.6284 58.5 23.4481C58.3192 23.2671 58.058 23.1766 57.7171 23.1766H56.4297L55.8739 26.0189Z" fill="white"/>
<path d="M61.2534 31.4549L63.3009 20.9814H69.8391L69.415 23.1788H65.4217L65.0559 25.0832L68.773 25.0825L68.3474 27.2791L64.6175 27.2798L64.2368 29.2576H68.2521L67.8258 31.4549H61.2534Z" fill="white"/>
<path d="M70.0149 26.9341C70.0149 25.885 70.2903 24.9 70.8426 23.9792C71.3941 23.0576 72.1279 22.3278 73.0431 21.789C73.9583 21.2509 74.9248 20.9814 75.9439 20.9814C77.3779 20.9814 78.5308 21.3948 79.4041 22.2216C80.2766 23.0483 80.7129 24.1089 80.7129 25.4032C80.7129 26.4709 80.4325 27.4722 79.8709 28.408C79.3094 29.3431 78.5714 30.0844 77.6562 30.6325C76.741 31.1805 75.7788 31.4549 74.7696 31.4549C73.3356 31.4549 72.1841 31.0316 71.3166 30.1863C70.4483 29.3403 70.0149 28.2562 70.0149 26.9341ZM72.562 26.7923C72.562 27.5007 72.7691 28.0773 73.184 28.5214C73.5996 28.9654 74.1369 29.1871 74.7974 29.1871C75.6564 29.1871 76.43 28.8307 77.1182 28.1173C77.8071 27.4038 78.1515 26.5514 78.1515 25.5593C78.1515 24.8694 77.9437 24.312 77.5288 23.8865C77.1139 23.4617 76.5759 23.2493 75.9154 23.2493C75.0479 23.2493 74.2714 23.5964 73.5875 24.2906C72.9036 24.9848 72.562 25.8187 72.562 26.7923Z" fill="white"/>
<path d="M80.8673 31.4549L82.8999 20.9814H86.8931C87.5173 20.9814 88.0482 21.0891 88.4873 21.3036C88.9748 21.5381 89.3505 21.8852 89.6132 22.3435C89.8772 22.8032 90.0081 23.3399 90.0081 23.9549C90.0081 24.8145 89.7868 25.5978 89.3427 26.3062C88.8993 27.014 88.3215 27.5335 87.6098 27.8657C87.1123 28.1001 86.5764 28.217 86.0007 28.217H84.0556L83.4265 31.4549H80.8673ZM84.4798 26.0204H85.7231C86.0839 26.0204 86.3715 25.947 86.5857 25.8009C87.1123 25.4488 87.3756 24.9121 87.3756 24.1894C87.3756 23.8772 87.2852 23.6299 87.1052 23.4496C86.9244 23.2693 86.664 23.1788 86.3223 23.1788H85.0356L84.4798 26.0204Z" fill="white"/>
<path d="M89.8644 31.4549L91.8976 20.9814H94.4568L92.8484 29.2576H97.1192L96.6801 31.4549H89.8644Z" fill="white"/>
<path d="M119.541 31.4549L121.575 20.9814H124.134L122.525 29.2576H126.796L126.357 31.4549H119.541Z" fill="white"/>
<path d="M127.6 31.4549L133.041 20.9814H135.981L137.429 31.4549H134.87L134.666 29.2562L131.389 29.2576L130.335 31.4549H127.6ZM132.384 27.2071L134.475 27.2064L134.136 23.548C133.416 25.0461 133.019 25.8707 132.384 27.2071Z" fill="white"/>
<path d="M138.664 31.4549L140.697 20.9814H143.184L145.129 25.8736L145.545 26.9184L145.662 27.2142C146.082 25.0483 146.449 23.1474 146.87 20.9814H149.429L147.397 31.4549H144.924C144.087 29.3716 143.267 27.2862 142.438 25.2015C142.017 27.3454 141.642 29.3096 141.224 31.4549H138.664Z" fill="white"/>
<path d="M110.582 31.4549L112.615 20.9814H116.608C117.232 20.9814 117.764 21.0891 118.202 21.3036C118.689 21.5381 119.065 21.8852 119.329 22.3435C119.592 22.8025 119.724 23.3399 119.724 23.9549C119.724 24.8145 119.502 25.5978 119.058 26.3062C118.614 27.014 118.036 27.5335 117.324 27.8657C116.828 28.1001 116.291 28.217 115.716 28.217H113.77L113.141 31.4549H110.582ZM114.195 26.0204H115.438C115.799 26.0204 116.086 25.947 116.301 25.8002C116.828 25.4488 117.09 24.9121 117.09 24.1894C117.09 23.8772 117.001 23.6299 116.82 23.4496C116.64 23.2693 116.379 23.1788 116.038 23.1788H114.75L114.195 26.0204Z" fill="white"/>
<path d="M149.611 27.9298C150.142 28.3902 150.712 28.6646 151.366 28.9176C151.805 29.088 152.241 29.1728 152.675 29.1728C152.977 29.1728 153.255 29.0994 153.51 28.9533C153.764 28.8072 153.891 28.5827 153.891 28.2798C153.891 27.8721 153.227 27.5107 152.908 27.3589C152.63 27.2263 152.328 27.061 152.003 26.8629C151.677 26.6647 151.375 26.4545 151.097 26.2321C150.818 26.0104 150.585 25.7175 150.396 25.3533C150.208 24.9898 150.114 24.5857 150.114 24.1417C150.114 23.1873 150.491 22.4226 151.245 21.846C152 21.2694 152.878 20.9814 153.878 20.9814C155.305 20.9814 156.241 21.3464 157 21.8838L156.537 24.2692C156.159 23.9485 155.715 23.7176 155.031 23.476C154.63 23.3342 154.232 23.2629 153.835 23.2629C153.533 23.2629 153.25 23.3391 152.986 23.4902C152.722 23.6413 152.59 23.8587 152.59 24.1417C152.59 24.312 152.684 24.4774 152.873 24.6377C153.062 24.7988 153.298 24.9449 153.58 25.0775C153.864 25.2093 154.167 25.3725 154.493 25.5664C154.819 25.7596 155.123 25.9677 155.406 26.1893C155.689 26.4117 155.925 26.7046 156.113 27.0681C156.303 27.4323 156.396 27.8357 156.396 28.2798C156.396 29.1585 156.038 29.9076 155.321 30.5263C154.604 31.1449 153.708 31.4549 152.632 31.4549C151.916 31.4549 151.205 31.3316 150.502 31.0865C149.969 30.8997 149.515 30.6474 149.142 30.3303C149.144 30.326 149.146 30.321 149.147 30.316L149.611 27.9298Z" fill="white"/>
<path d="M97.9298 31.452L99.9773 20.9792H106.515L106.091 23.1766H102.098L101.732 25.081L105.449 25.0803L105.024 27.2769L101.294 27.2776L100.914 29.2554H104.928L104.503 31.452H97.9298Z" fill="white"/>
<path d="M40.8432 22.1936C37.5595 15.7649 30.1488 5.0412 15.7686 0.373563C12.5269 -0.67842 9.10299 0.541053 7.25262 3.40692C3.33838 9.46865 -2.21556 21.24 0.923657 36.0227C1.63178 39.3604 4.39452 41.7209 7.79705 41.8969C14.9807 42.2683 27.9632 41.2206 39.1992 31.0999C41.7349 28.8163 42.396 25.2341 40.8432 22.1936Z" fill="#FF461E"/>
<path fill-rule="evenodd" clip-rule="evenodd" d="M13.4314 10.5134L11.6152 31.4447L20.2849 27.5661L13.4314 10.5134Z" fill="#E3E3E3"/>
<path fill-rule="evenodd" clip-rule="evenodd" d="M20.2842 27.5661L30.0605 26.4407L13.4307 10.5134L20.2842 27.5661Z" fill="#FEFEFE"/>
</svg>
